<?xml version="1.0" encoding="UTF-8"?>
<svg width="95px" height="52px" viewBox="0 0 95 52" version="1.1" xmlns="http://www.w3.org/2000/svg" xmlns:xlink="http://www.w3.org/1999/xlink">
    <title>brand-logo</title>
    <g id="Page-1" stroke="none" stroke-width="1" fill="none" fill-rule="evenodd">
        <g id="Artboard" transform="translate(-181.000000, -73.000000)">
            <g id="brand-logo" transform="translate(181.000000, 73.000000)">
                <path d="M7.392,21.264 C8.56533333,21.264 9.53333333,21.0916667 10.296,20.747 C11.0586667,20.4023333 11.6673333,19.9146667 12.122,19.284 C12.5766667,18.6533333 12.892,17.8943333 13.068,17.007 C13.244,16.1196667 13.332,15.1406667 13.332,14.07 L13.332,14.07 L13.332,5.182 C13.0533333,5.138 12.7783333,5.10866667 12.507,5.094 C12.2356667,5.07933333 11.968,5.072 11.704,5.072 C11.4546667,5.072 11.198,5.07933333 10.934,5.094 C10.67,5.10866667 10.3913333,5.138 10.098,5.182 L10.098,5.182 L10.098,13.388 C10.098,14.2826667 10.065,15.049 9.999,15.687 C9.933,16.325 9.801,16.853 9.603,17.271 C9.405,17.689 9.13,17.997 8.778,18.195 C8.426,18.393 7.964,18.492 7.392,18.492 C6.82,18.492 6.35433333,18.393 5.995,18.195 C5.63566667,17.997 5.357,17.689 5.159,17.271 C4.961,16.853 4.829,16.325 4.763,15.687 C4.697,15.049 4.664,14.2826667 4.664,13.388 L4.664,13.388 L4.664,5.182 C4.38533333,5.138 4.114,5.10866667 3.85,5.094 C3.586,5.07933333 3.32933333,5.072 3.08,5.072 C2.80133333,5.072 2.53,5.07933333 2.266,5.094 C2.002,5.10866667 1.73066667,5.138 1.452,5.182 L1.452,5.182 L1.452,14.07 C1.452,15.1406667 1.54,16.1196667 1.716,17.007 C1.892,17.8943333 2.20733333,18.6533333 2.662,19.284 C3.11666667,19.9146667 3.72533333,20.4023333 4.488,20.747 C5.25066667,21.0916667 6.21866667,21.264 7.392,21.264 Z M26.642,21.132 C27.0233333,21.132 27.4486667,21.088 27.918,21 L27.918,21 L27.918,5.182 C27.4926667,5.094 27.0526667,5.05 26.598,5.05 C26.114,5.05 25.608,5.094 25.08,5.182 L25.08,5.182 L25.08,15.258 L18.964,5.182 C18.4946667,5.094 18.04,5.05 17.6,5.05 C17.1893333,5.05 16.7566667,5.094 16.302,5.182 L16.302,5.182 L16.302,21 C16.7566667,21.088 17.226,21.132 17.71,21.132 C18.194,21.132 18.6706667,21.088 19.14,21 L19.14,21 L19.14,10.946 L25.3,21 C25.784,21.088 26.2313333,21.132 26.642,21.132 Z M35.002,21.264 C37.8913333,21.264 40.0693333,20.6113333 41.536,19.306 C43.0026667,18.0006667 43.736,15.962 43.736,13.19 C43.736,10.4326667 43.0136667,8.36466667 41.569,6.986 C40.1243333,5.60733333 38.016,4.918 35.244,4.918 C34.4226667,4.918 33.6746667,4.94366667 33,4.995 C32.3253333,5.04633333 31.68,5.10866667 31.064,5.182 L31.064,5.182 L31.064,21 C31.68,21.0733333 32.3033333,21.1356667 32.934,21.187 C33.5646667,21.2383333 34.254,21.264 35.002,21.264 Z M35.552,18.514 C35.2586667,18.514 35.0093333,18.5066667 34.804,18.492 C34.5986667,18.4773333 34.43,18.4626667 34.298,18.448 L34.298,18.448 L34.298,7.756 C34.5033333,7.72666667 34.7416667,7.70833333 35.013,7.701 C35.2843333,7.69366667 35.5226667,7.69 35.728,7.69 C36.344,7.69 36.927,7.77433333 37.477,7.943 C38.027,8.11166667 38.5146667,8.40133333 38.94,8.812 C39.3653333,9.22266667 39.7026667,9.78 39.952,10.484 C40.2013333,11.188 40.326,12.068 40.326,13.124 C40.326,14.2093333 40.2013333,15.0966667 39.952,15.786 C39.7026667,16.4753333 39.3653333,17.0253333 38.94,17.436 C38.5146667,17.8466667 38.0123333,18.129 37.433,18.283 C36.8536667,18.437 36.2266667,18.514 35.552,18.514 Z M55.528,21 C55.616,20.56 55.66,20.098 55.66,19.614 C55.66,19.1593333 55.616,18.712 55.528,18.272 L55.528,18.272 L49.61,18.272 L49.61,14.092 L54.186,14.092 C54.274,13.6373333 54.318,13.1753333 54.318,12.706 C54.318,12.266 54.274,11.8113333 54.186,11.342 L54.186,11.342 L49.61,11.342 L49.61,7.91 L55.374,7.91 C55.462,7.47 55.506,7.008 55.506,6.524 C55.506,6.06933333 55.462,5.622 55.374,5.182 L55.374,5.182 L46.398,5.182 L46.398,21 L55.528,21 Z M67.848,21.11 C68.1853333,21.11 68.5153333,21.0953333 68.838,21.066 C69.1606667,21.0366667 69.4686667,21.0073333 69.762,20.978 L69.762,20.978 L65.912,14.29 L66.286,14.048 C66.5206667,13.9013333 66.77,13.707 67.034,13.465 C67.298,13.223 67.5436667,12.9333333 67.771,12.596 C67.9983333,12.2586667 68.1853333,11.8663333 68.332,11.419 C68.4786667,10.9716667 68.552,10.4546667 68.552,9.868 C68.552,8.88533333 68.3576667,8.075 67.969,7.437 C67.5803333,6.799 67.0706667,6.293 66.44,5.919 C65.8093333,5.545 65.1016667,5.28466667 64.317,5.138 C63.5323333,4.99133333 62.7366667,4.918 61.93,4.918 C61.2406667,4.918 60.6136667,4.94366667 60.049,4.995 C59.4843333,5.04633333 58.8793333,5.10866667 58.234,5.182 L58.234,5.182 L58.234,21 C58.5273333,21.044 58.8133333,21.0733333 59.092,21.088 C59.3706667,21.1026667 59.6346667,21.11 59.884,21.11 C60.1333333,21.11 60.39,21.099 60.654,21.077 C60.918,21.055 61.182,21.0293333 61.446,21 L61.446,21 L61.446,7.646 C61.71,7.602 62.0033333,7.58 62.326,7.58 C63.162,7.58 63.844,7.79633333 64.372,8.229 C64.9,8.66166667 65.164,9.34 65.164,10.264 C65.164,10.7333333 65.0686667,11.1403333 64.878,11.485 C64.6873333,11.8296667 64.4563333,12.123 64.185,12.365 C63.9136667,12.607 63.6313333,12.8086667 63.338,12.97 C63.0446667,13.1313333 62.7953333,13.2633333 62.59,13.366 L62.59,13.366 L62.062,13.63 L66.198,20.978 C66.7406667,21.066 67.2906667,21.11 67.848,21.11 Z M33.236,47.264 C34.2186667,47.264 35.0876667,47.1393333 35.843,46.89 C36.5983333,46.6406667 37.2326667,46.296 37.746,45.856 C38.2593333,45.416 38.6516667,44.888 38.923,44.272 C39.1943333,43.656 39.33,42.974 39.33,42.226 C39.33,41.5073333 39.242,40.9023333 39.066,40.411 C38.89,39.9196667 38.6443333,39.5016667 38.329,39.157 C38.0136667,38.8123333 37.6286667,38.5226667 37.174,38.288 C36.7193333,38.0533333 36.2133333,37.826 35.656,37.606 L35.656,37.606 L34.336,37.1 C34.116,37.012 33.896,36.9203333 33.676,36.825 C33.456,36.7296667 33.258,36.6123333 33.082,36.473 C32.906,36.3336667 32.7666667,36.165 32.664,35.967 C32.5613333,35.769 32.51,35.5233333 32.51,35.23 C32.51,34.8633333 32.576,34.5663333 32.708,34.339 C32.84,34.1116667 33.0086667,33.9393333 33.214,33.822 C33.4193333,33.7046667 33.6503333,33.624 33.907,33.58 C34.1636667,33.536 34.4166667,33.514 34.666,33.514 C35.0766667,33.514 35.4433333,33.5323333 35.766,33.569 C36.0886667,33.6056667 36.3783333,33.6533333 36.635,33.712 C36.8916667,33.7706667 37.1336667,33.844 37.361,33.932 C37.5883333,34.02 37.812,34.108 38.032,34.196 C38.4133333,33.3746667 38.648,32.5386667 38.736,31.688 C38.0173333,31.4386667 37.3316667,31.248 36.679,31.116 C36.0263333,30.984 35.326,30.918 34.578,30.918 C33.7566667,30.918 33.016,31.017 32.356,31.215 C31.696,31.413 31.1313333,31.7063333 30.662,32.095 C30.1926667,32.4836667 29.8296667,32.964 29.573,33.536 C29.3163333,34.108 29.188,34.768 29.188,35.516 C29.188,36.132 29.265,36.66 29.419,37.1 C29.573,37.54 29.7893333,37.9176667 30.068,38.233 C30.3466667,38.5483333 30.684,38.8196667 31.08,39.047 C31.476,39.2743333 31.9233333,39.4833333 32.422,39.674 L32.422,39.674 L33.764,40.18 C34.028,40.2826667 34.2846667,40.389 34.534,40.499 C34.7833333,40.609 35.007,40.7446667 35.205,40.906 C35.403,41.0673333 35.5643333,41.2653333 35.689,41.5 C35.8136667,41.7346667 35.876,42.028 35.876,42.38 C35.876,43.084 35.612,43.6083333 35.084,43.953 C34.556,44.2976667 33.83,44.47 32.906,44.47 C32.29,44.47 31.7106667,44.4076667 31.168,44.283 C30.6253333,44.1583333 30.046,43.9713333 29.43,43.722 C29.2686667,44.1913333 29.1293333,44.657 29.012,45.119 C28.8946667,45.581 28.814,46.0246667 28.77,46.45 C29.1366667,46.5966667 29.4886667,46.7213333 29.826,46.824 C30.1633333,46.9266667 30.5043333,47.011 30.849,47.077 C31.1936667,47.143 31.5566667,47.1906667 31.938,47.22 C32.3193333,47.2493333 32.752,47.264 33.236,47.264 Z M46.392,47.11 C46.6413333,47.11 46.898,47.099 47.162,47.077 C47.426,47.055 47.69,47.0293333 47.954,47 L47.954,47 L47.954,33.91 L51.892,33.91 C51.98,33.47 52.024,33.008 52.024,32.524 C52.024,32.0693333 51.98,31.622 51.892,31.182 L51.892,31.182 L40.782,31.182 C40.694,31.622 40.65,32.0693333 40.65,32.524 C40.65,33.008 40.694,33.47 40.782,33.91 L40.782,33.91 L44.72,33.91 L44.72,47 C45.0133333,47.044 45.303,47.0733333 45.589,47.088 C45.875,47.1026667 46.1426667,47.11 46.392,47.11 Z M59.724,47.264 C60.912,47.264 61.9386667,47.0586667 62.804,46.648 C63.6693333,46.2373333 64.3806667,45.669 64.938,44.943 C65.4953333,44.217 65.9096667,43.359 66.181,42.369 C66.4523333,41.379 66.588,40.2973333 66.588,39.124 C66.588,37.9506667 66.4523333,36.8616667 66.181,35.857 C65.9096667,34.8523333 65.4953333,33.9833333 64.938,33.25 C64.3806667,32.5166667 63.6693333,31.9446667 62.804,31.534 C61.9386667,31.1233333 60.912,30.918 59.724,30.918 C58.536,30.918 57.5093333,31.1233333 56.644,31.534 C55.7786667,31.9446667 55.0673333,32.5166667 54.51,33.25 C53.9526667,33.9833333 53.5383333,34.8523333 53.267,35.857 C52.9956667,36.8616667 52.86,37.9506667 52.86,39.124 C52.86,40.2973333 52.9956667,41.379 53.267,42.369 C53.5383333,43.359 53.9526667,44.217 54.51,44.943 C55.0673333,45.669 55.7786667,46.2373333 56.644,46.648 C57.5093333,47.0586667 58.536,47.264 59.724,47.264 Z M59.724,44.58 C57.436,44.58 56.292,42.7613333 56.292,39.124 C56.292,35.4866667 57.4433333,33.668 59.746,33.668 C60.9046667,33.668 61.759,34.1226667 62.309,35.032 C62.859,35.9413333 63.134,37.3053333 63.134,39.124 C63.134,42.7613333 61.9973333,44.58 59.724,44.58 Z M79.018,47.11 C79.3553333,47.11 79.6853333,47.0953333 80.008,47.066 C80.3306667,47.0366667 80.6386667,47.0073333 80.932,46.978 L80.932,46.978 L77.082,40.29 L77.456,40.048 C77.6906667,39.9013333 77.94,39.707 78.204,39.465 C78.468,39.223 78.7136667,38.9333333 78.941,38.596 C79.1683333,38.2586667 79.3553333,37.8663333 79.502,37.419 C79.6486667,36.9716667 79.722,36.4546667 79.722,35.868 C79.722,34.8853333 79.5276667,34.075 79.139,33.437 C78.7503333,32.799 78.2406667,32.293 77.61,31.919 C76.9793333,31.545 76.2716667,31.2846667 75.487,31.138 C74.7023333,30.9913333 73.9066667,30.918 73.1,30.918 C72.4106667,30.918 71.7836667,30.9436667 71.219,30.995 C70.6543333,31.0463333 70.0493333,31.1086667 69.404,31.182 L69.404,31.182 L69.404,47 C69.6973333,47.044 69.9833333,47.0733333 70.262,47.088 C70.5406667,47.1026667 70.8046667,47.11 71.054,47.11 C71.3033333,47.11 71.56,47.099 71.824,47.077 C72.088,47.055 72.352,47.0293333 72.616,47 L72.616,47 L72.616,33.646 C72.88,33.602 73.1733333,33.58 73.496,33.58 C74.332,33.58 75.014,33.7963333 75.542,34.229 C76.07,34.6616667 76.334,35.34 76.334,36.264 C76.334,36.7333333 76.2386667,37.1403333 76.048,37.485 C75.8573333,37.8296667 75.6263333,38.123 75.355,38.365 C75.0836667,38.607 74.8013333,38.8086667 74.508,38.97 C74.2146667,39.1313333 73.9653333,39.2633333 73.76,39.366 L73.76,39.366 L73.232,39.63 L77.368,46.978 C77.9106667,47.066 78.4606667,47.11 79.018,47.11 Z M87.466,47.132 C87.73,47.132 87.994,47.1246667 88.258,47.11 C88.522,47.0953333 88.8006667,47.066 89.094,47.022 L89.094,47.022 L89.094,41.346 L94.022,31.182 C93.4206667,31.094 92.856,31.05 92.328,31.05 C91.756,31.05 91.1986667,31.094 90.656,31.182 L90.656,31.182 L87.576,38.354 L84.452,31.182 C83.8946667,31.094 83.3373333,31.05 82.78,31.05 C82.164,31.05 81.548,31.094 80.932,31.182 L80.932,31.182 L85.86,41.346 L85.86,47.022 C86.1386667,47.066 86.4136667,47.0953333 86.685,47.11 C86.9563333,47.1246667 87.2166667,47.132 87.466,47.132 Z" id="UNDERSTORY" fill="#323232" fill-rule="nonzero"></path>
                <path d="M9.56578907,41.801157 C9.27436526,42.2820841 9.04629751,42.812329 8.88157854,43.3919074 C8.71686038,43.9714866 8.63450292,44.57572 8.63450292,45.2046248 C8.63450292,45.2046248 8.63450292,45.2046248 8.63450292,45.2046248 C8.63450292,45.4265908 8.5553129,45.6146428 8.39692962,45.7687861 C8.23854715,45.9229295 8.04532285,46 7.81725106,46 C7.58918015,46 7.39595594,45.9229295 7.23757314,45.7687861 C7.07919024,45.6146428 7,45.4265908 7,45.2046248 C7,44.3660845 7.12670436,43.5522197 7.38011696,42.7630066 C7.63352956,41.9737927 7.98830166,41.2462469 8.44444444,40.5803471 C8.16569039,40.1487463 7.94395833,39.6770742 7.77923977,39.165319 C7.61452161,38.6535629 7.53216374,38.1140692 7.53216374,37.5468199 C7.53216374,36.9795752 7.61768921,36.4308297 7.78874265,35.9005753 C7.95979634,35.3703289 8.20370208,34.8832443 8.52046784,34.4393058 L8.50146158,34.4578049 C8.79288621,34.0385371 9.2490225,33.6316047 9.86988264,33.2369918 C10.5034141,32.8423869 11.2984842,32.4601173 12.2551172,32.0901751 C13.2117493,31.720233 14.3362508,31.3564546 15.6286509,30.9988478 C16.9210567,30.6535684 18.3781595,30.3206165 20,30 C19.9366431,31.3564624 19.8479532,32.5957588 19.7339141,33.7179206 C19.619883,34.8277549 19.4773402,35.8265869 19.3062855,36.714456 C19.1352309,37.6023171 18.9356725,38.3730224 18.7076023,39.0265901 C18.4668575,39.6801585 18.2007797,40.2165687 17.9093527,40.6358388 C17.3898635,41.3757271 16.7214983,41.9676282 15.9042408,42.4115611 C15.086984,42.8554941 14.1905511,43.077457 13.2149119,43.077457 C12.5180275,43.077457 11.8591646,42.9633925 11.2383037,42.7352603 C10.6174436,42.5071281 10.0599444,42.1895982 9.56578907,41.7826595 L9.56578907,41.801157 Z M10.5540932,40.5433537 C10.9088714,40.8393082 11.3111572,41.0736025 11.7609651,41.246243 C12.2107722,41.4188842 12.6954163,41.5052033 13.2149119,41.5052033 C13.911797,41.5052033 14.5516537,41.3479792 15.1345029,41.0335264 C15.7173489,40.7190744 16.1924972,40.2967279 16.5599395,39.7664744 C16.7753432,39.4705199 16.9653976,39.0820841 17.130119,38.601157 C17.3075069,38.1325612 17.4690576,37.5745685 17.614763,36.9271717 C17.7604766,36.279767 17.8840115,35.5429764 17.9853842,34.7167605 C18.0994152,33.8905524 18.1881051,32.9780442 18.251462,31.9791964 C17.0477542,32.2628148 15.9707683,32.5464332 15.0204678,32.8300594 C14.0575,33.1136857 13.2244191,33.3973041 12.521199,33.6809224 C11.817979,33.9645487 11.2446418,34.2481671 10.8011696,34.5317933 C10.3450268,34.8030842 10.0282659,35.0743751 9.85087719,35.3456661 C9.63547677,35.6539551 9.46442536,35.9961487 9.33771889,36.3722545 C9.21101324,36.7483683 9.14766122,37.1398796 9.14766122,37.5468199 C9.14766122,37.8674364 9.18567211,38.1726389 9.2616955,38.4624289 C9.3377197,38.7522181 9.43908342,39.0327546 9.56578907,39.3040471 L9.56578907,39.2670529 C9.73050804,39.1067438 9.90789352,38.9495198 10.0979528,38.7953768 C10.2880129,38.6412331 10.4844046,38.4963404 10.6871345,38.3606942 L11.1052632,38.083238 C11.168616,38.0339124 11.2383037,37.9969221 11.3143271,37.9722514 C11.3903513,37.9475886 11.4727087,37.9352611 11.5614035,37.9352611 C11.7894745,37.9352611 11.9826988,38.0123354 12.1410821,38.1664752 C12.2994645,38.3206181 12.3786546,38.5086703 12.3786546,38.7306363 C12.3786546,38.8662826 12.3469786,38.9895958 12.2836257,39.1005785 C12.2202729,39.2115619 12.1379146,39.3040471 12.0365501,39.3780355 L11.6184206,39.6554925 C11.4156908,39.791138 11.2256347,39.9329479 11.048246,40.0809256 C10.8708565,40.2289032 10.7061408,40.3830438 10.5540932,40.5433537 Z" id="Fill-1" fill="#519757"></path>
            </g>
        </g>
    </g>
</svg>