<?xml version="1.0" encoding="UTF-8"?>
<svg width="20px" height="20px" viewBox="0 0 20 20" version="1.1" xmlns="http://www.w3.org/2000/svg" xmlns:xlink="http://www.w3.org/1999/xlink">
    <title>Fill 1</title>
    <g id="Page-1" stroke="none" stroke-width="1" fill="none" fill-rule="evenodd">
        <g id="Artboard" transform="translate(-14.000000, -148.000000)" fill="#000000">
            <path d="M22.7886603,163.366796 C23.6993177,163.366796 24.5584154,163.195198 25.3659821,162.851996 C26.1563601,162.508793 26.8522337,162.041187 27.4536137,161.449164 C28.0549828,160.857141 28.5274942,160.157878 28.8711368,159.351353 C29.2147794,158.544827 29.3866007,157.686835 29.3866007,156.77735 C29.3866007,155.867864 29.2147794,155.018452 28.8711368,154.229091 C28.5274942,153.422565 28.0549828,152.723304 27.4536137,152.131275 C26.8522337,151.539257 26.1563601,151.063071 25.3659821,150.702705 C24.5584154,150.359505 23.6993177,150.187905 22.7886603,150.187905 C21.8780019,150.187905 21.0189042,150.359505 20.2113408,150.702705 C19.4209584,151.063071 18.7250892,151.539257 18.1237113,152.131275 C17.5223335,152.723304 17.0498298,153.422565 16.7061861,154.229091 C16.3625413,155.018452 16.1907222,155.867864 16.1907222,156.77735 C16.1907222,157.686835 16.3625413,158.544827 16.7061861,159.351353 C17.0498298,160.157878 17.5223335,160.857141 18.1237113,161.449164 C18.7250892,162.041187 19.4209584,162.508793 20.2113408,162.851996 C21.0189042,163.195198 21.8780019,163.366796 22.7886603,163.366796 Z M29.7474199,162.182755 L33.6649457,166.095238 C33.7680385,166.198198 33.849655,166.318317 33.9097952,166.455599 C33.9699354,166.59288 34,166.738738 34,166.89318 C34,167.202061 33.8926076,167.463748 33.6778337,167.67825 C33.4630598,167.892751 33.209622,168 32.9175203,168 C32.7628866,168 32.6168412,167.96997 32.4793842,167.90991 C32.3419271,167.84985 32.2216467,167.76834 32.118554,167.66538 L28.1752522,163.727156 C27.4364261,164.29344 26.6073952,164.743886 25.6881485,165.078508 C24.7688962,165.41313 23.8024104,165.580438 22.7886603,165.580438 C21.5687225,165.580438 20.4261223,165.34878 19.3608247,164.885457 C18.2955271,164.422134 17.3634056,163.79151 16.5644327,162.993565 C15.7654598,162.195621 15.1340228,161.264699 14.6701031,160.200774 C14.2233655,159.136847 14,157.995718 14,156.77735 C14,155.576138 14.2233655,154.435011 14.6701031,153.353925 C15.1340228,152.290004 15.7654598,151.363374 16.5644327,150.574002 C17.3634056,149.784642 18.2955271,149.158304 19.3608247,148.694989 C20.4261223,148.231663 21.5687225,148 22.7886603,148 C24.0085971,148 25.1511973,148.231663 26.2165003,148.694989 C27.2817924,149.158304 28.2139162,149.784642 29.0128825,150.574002 C29.8118598,151.363374 30.4347052,152.290004 30.8814405,153.353925 C31.3453636,154.435011 31.5773251,155.576138 31.5773251,156.77735 C31.5773251,157.806957 31.4140921,158.780778 31.0876261,159.698843 C30.7611711,160.616908 30.3058474,161.444871 29.721655,162.182755 L29.7474199,162.182755 Z" id="Fill-1"></path>
        </g>
    </g>
</svg>