<?xml version="1.0" encoding="UTF-8"?>
<svg width="17px" height="24px" viewBox="0 0 17 24" version="1.1" xmlns="http://www.w3.org/2000/svg" xmlns:xlink="http://www.w3.org/1999/xlink">
    <title>Fill 1</title>
    <g id="Page-1" stroke="none" stroke-width="1" fill="none" fill-rule="evenodd">
        <g id="Artboard" transform="translate(-20.000000, -116.000000)" fill="#000000">
            <path d="M24.2926431,128.070341 C24.3684526,128.051584 24.4442596,128.032827 24.5200679,128.014069 C24.5958774,127.995312 24.6811611,127.985937 24.7759214,127.985937 C25.1170599,127.985937 25.4060762,128.103166 25.6429789,128.337633 C25.8798804,128.572101 25.9983293,128.858148 25.9983293,129.195781 C25.9983293,129.439627 25.9225222,129.664713 25.7709045,129.871045 C25.6192879,130.077376 25.4297684,130.227434 25.2023424,130.32122 L25.1739149,130.32122 C24.3779243,130.640096 23.7240846,131.160607 23.2123763,131.882767 C22.7006668,132.604929 22.4448169,133.416174 22.4448169,134.316531 C22.4448169,134.316531 22.4448169,134.316531 22.4448169,134.316531 L22.4448169,136.398594 C22.4448169,136.736227 22.5632658,137.022273 22.8001685,137.256742 C23.03707,137.491209 23.3166109,137.60844 23.6387973,137.60844 L33.3612027,137.60844 C33.683394,137.60844 33.9629385,137.491209 34.1998363,137.256742 C34.4367342,137.022273 34.5551891,136.736227 34.5551891,136.398594 L34.5551891,134.429075 C34.5551891,134.429075 34.5551891,134.429075 34.5551891,134.429075 C34.5551891,133.491204 34.2946027,132.651821 33.7734178,131.910904 C33.2522329,131.169985 32.5747009,130.640096 31.7408075,130.32122 L31.7123788,130.32122 C31.4660006,130.227434 31.2670057,130.077376 31.115388,129.871045 C30.9637714,129.664713 30.8879631,129.439627 30.8879631,129.195781 C30.8879631,128.858148 31.0064133,128.572101 31.2433147,128.337633 C31.4802174,128.103166 31.7692338,127.985937 32.1103722,127.985937 C32.1861866,127.985937 32.2667253,127.995312 32.3520065,128.014069 C32.4373,128.032827 32.5083657,128.051584 32.5652279,128.070341 C33.8729268,128.576792 34.938961,129.402106 35.763379,130.546308 C36.587797,131.690511 37,132.984753 37,134.429075 L37,136.398594 C37,137.392737 36.6446593,138.241497 35.9339537,138.944901 C35.2232481,139.648304 34.3656684,140 33.3612027,140 L23.6387973,140 C22.6343328,140 21.7767604,139.648304 21.0660538,138.944901 C20.3553477,138.241497 20,137.392737 20,136.398594 L20,134.316531 C20,132.909724 20.3979895,131.643617 21.1939804,130.518172 C21.9899709,129.392727 23.0133729,128.586171 24.2642156,128.098478 L24.2926431,128.070341 Z M28.5000024,116 C29.8456066,116 30.9921953,116.468927 31.9398036,117.406805 C32.8874071,118.344672 33.3612027,119.470099 33.3612027,120.783124 L33.3612027,123.202813 C33.3612027,124.515837 32.8874071,125.641265 31.9398036,126.579131 C30.9921953,127.517009 29.8456066,127.985937 28.5000024,127.985937 C27.1543994,127.985937 26.0078108,127.517009 25.0602025,126.579131 C24.1125942,125.641265 23.6387973,124.515837 23.6387973,123.202813 L23.6387973,120.783124 C23.6387973,119.470099 24.1125942,118.344672 25.0602025,117.406805 C26.0078108,116.468927 27.1543994,116 28.5000024,116 Z M28.5000024,118.391562 C27.8366776,118.391562 27.2681204,118.626025 26.7943162,119.094965 C26.3205133,119.563892 26.0836142,120.126611 26.0836142,120.783124 L26.0836142,123.202813 C26.0836142,123.859325 26.3205133,124.422045 26.7943162,124.890972 C27.2681204,125.359911 27.8366776,125.594375 28.5000024,125.594375 C29.1633285,125.594375 29.7318857,125.359911 30.2056887,124.890972 C30.6794928,124.422045 30.9163919,123.859325 30.9163919,123.202813 L30.9163919,120.783124 C30.9163919,120.126611 30.6794928,119.563892 30.2056887,119.094965 C29.7318857,118.626025 29.1633285,118.391562 28.5000024,118.391562 Z" id="Fill-1"></path>
        </g>
    </g>
</svg>