<?xml version="1.0" encoding="UTF-8"?>
<svg width="21px" height="20px" viewBox="0 0 21 20" version="1.1" xmlns="http://www.w3.org/2000/svg" xmlns:xlink="http://www.w3.org/1999/xlink">
    <title>Fill 1</title>
    <g id="Page-1" stroke="none" stroke-width="1" fill="none" fill-rule="evenodd">
        <g id="Artboard" transform="translate(-21.000000, -88.000000)" fill="#000000">
            <path d="M29.1590624,108 C28.5019532,108 27.9452439,107.755981 27.4889193,107.267935 C27.0325936,106.77989 26.8044337,106.184484 26.8044337,105.481698 C26.8044337,104.798434 27.0325936,104.212789 27.4889193,103.724743 C27.9452439,103.236698 28.5019532,102.992679 29.1590624,102.992679 C29.7979187,102.992679 30.3455009,103.236698 30.8018267,103.724743 C31.2581524,104.212789 31.4863112,104.798434 31.4863112,105.481698 C31.4863112,106.184484 31.2581524,106.77989 30.8018267,107.267935 C30.3455009,107.755981 29.7979187,108 29.1590624,108 Z M37.3181248,108 C36.6792662,108 36.1316898,107.755981 35.6753606,107.267935 C35.2190313,106.77989 34.9908726,106.184484 34.9908726,105.481698 C34.9908726,104.798434 35.2190313,104.212789 35.6753606,103.724743 C36.1316898,103.236698 36.6792662,102.992679 37.3181248,102.992679 C37.9752305,102.992679 38.5319422,103.236698 38.9882714,103.724743 C39.444589,104.212789 39.6727594,104.798434 39.6727594,105.481698 C39.6727594,106.184484 39.444589,106.77989 38.9882714,107.267935 C38.5319422,107.755981 37.9752305,108 37.3181248,108 Z M22.0951762,90.4011654 C21.7848747,90.38165 21.5247729,90.2596345 21.3148631,90.0351316 C21.1049533,89.8106412 21,89.532452 21,89.2005765 C21,88.8687135 21.1049533,88.5905243 21.3148631,88.3660338 C21.5247729,88.1415309 21.7848747,88.0195155 22.0951762,88 L23.4367675,88 C23.966105,88 24.4361126,88.1756892 24.8468066,88.5270802 C25.2574994,88.8784712 25.5176011,89.327477 25.6271199,89.8740852 L27.1056065,96.9311842 C27.2151253,97.4777949 27.475227,97.9267907 27.8859198,98.278183 C28.2966138,98.6295752 28.7666214,98.8052694 29.2959588,98.8052694 L38.0573658,98.8052694 L39.7548947,91.6017544 L28.8305096,91.6017544 C28.5384614,91.5822264 28.2874856,91.4602235 28.0775762,91.2357206 C27.8676657,91.0112176 27.7627122,90.7330409 27.7627122,90.4011654 C27.7627122,90.0888179 27.8676657,89.8155138 28.0775762,89.5812532 C28.2874856,89.3469925 28.5384614,89.2201044 28.8305096,89.2005765 L39.7548947,89.2005765 C39.7548947,89.2005765 39.7548947,89.2005765 39.7548947,89.2005765 C40.3754945,89.2005765 40.9048238,89.4348371 41.3428943,89.9033584 C41.7809648,90.3718922 42,90.9380159 42,91.6017544 C42,91.6993692 41.9954441,91.8018567 41.9863088,91.9092168 C41.9771853,92.0165894 41.9543706,92.1190769 41.9178647,92.2166917 L41.945247,92.187406 L40.2477181,99.3909211 C40.1199534,99.91801 39.8552888,100.352364 39.4537242,100.693996 C39.0521479,101.035628 38.5867068,101.206441 38.0573658,101.206441 C38.0573658,101.206441 38.0573658,101.206441 38.0573658,101.206441 L29.2959588,101.206441 C29.2959588,101.206441 29.2959588,101.206441 29.2959588,101.206441 C28.2190309,101.206441 27.2744506,100.855054 26.4621908,100.152268 C25.6499311,99.4494825 25.1342906,98.5612535 24.9152542,97.4875539 L24.9152542,97.4582707 L23.4367675,90.4011654 L22.0951762,90.4011654 Z" id="Fill-1"></path>
        </g>
    </g>
</svg>